<?xml version="1.0" encoding="utf-8"?>
<!-- Generator: Adobe Illustrator 23.1.0, SVG Export Plug-In . SVG Version: 6.00 Build 0)  -->
<svg version="1.1" id="Layer_1" xmlns="http://www.w3.org/2000/svg" xmlns:xlink="http://www.w3.org/1999/xlink" x="0px" y="0px"
	 viewBox="0 0 100 125" style="enable-background:new 0 0 100 125;" xml:space="preserve">
<path d="M20,90.2h60.8c0.6,0,1-0.4,1-1v-7.5c0-0.6-0.4-1-1-1h-1.3V36.9h1.3c0.6,0,1-0.4,1-1v-7.5c0-0.6-0.4-1-1-1h-9.9V11.2
	c0-0.6-0.4-1-1-1h-39c-0.6,0-1,0.4-1,1v16.2H20c-0.6,0-1,0.4-1,1v7.5c0,0.6,0.4,1,1,1h1.3v43.8H20c-0.6,0-1,0.4-1,1v7.5
	C19,89.7,19.5,90.2,20,90.2z M31.9,12.2h37v15.2h-37V12.2z M21,29.3h58.8v5.5H21V29.3z M23.3,36.9h54.2v43.8H23.3V36.9z M21,82.6
	h58.8v5.5H21V82.6z"/>
<path d="M50.4,41.5c-9.5,0-17.2,7.7-17.2,17.2c0,9.5,7.7,17.2,17.2,17.2c9.5,0,17.2-7.7,17.2-17.2C67.6,49.2,59.9,41.5,50.4,41.5z
	 M50.4,73.9c-8.4,0-15.2-6.8-15.2-15.2s6.8-15.2,15.2-15.2s15.2,6.8,15.2,15.2S58.8,73.9,50.4,73.9z"/>
<path d="M62.1,55.1c-0.1-0.4-0.4-0.6-0.8-0.7l-6.9-1l-3.1-6.3c-0.2-0.3-0.5-0.6-0.9-0.6s-0.7,0.2-0.9,0.6l-3.1,6.3l-6.9,1
	c-0.4,0.1-0.7,0.3-0.8,0.7c-0.1,0.4,0,0.8,0.3,1l5,4.9l-1.2,6.9c-0.1,0.4,0.1,0.8,0.4,1c0.2,0.1,0.4,0.2,0.6,0.2
	c0.2,0,0.3,0,0.5-0.1l6.2-3.2l6.2,3.2c0.3,0.2,0.7,0.1,1.1-0.1c0.3-0.2,0.5-0.6,0.4-1L56.9,61l5-4.9C62.1,55.9,62.2,55.5,62.1,55.1z
	 M55.1,59.9c-0.2,0.2-0.3,0.6-0.3,0.9l0.9,5.4l-4.8-2.5c-0.3-0.2-0.6-0.2-0.9,0l-4.8,2.5l0.9-5.4c0.1-0.3-0.1-0.7-0.3-0.9l-3.9-3.8
	l5.4-0.8c0.3,0,0.6-0.3,0.8-0.5l2.4-4.9l2.4,4.9c0.1,0.3,0.4,0.5,0.8,0.5l5.4,0.8L55.1,59.9z"/>
<path d="M42.2,21.7h-3.7c-0.6,0-1,0.4-1,1s0.4,1,1,1h3.7c0.6,0,1-0.4,1-1S42.7,21.7,42.2,21.7z"/>
<path d="M62.3,21.7h-14c-0.6,0-1,0.4-1,1s0.4,1,1,1h14c0.6,0,1-0.4,1-1S62.9,21.7,62.3,21.7z"/>
<path d="M42.2,16.2h-3.7c-0.6,0-1,0.4-1,1s0.4,1,1,1h3.7c0.6,0,1-0.4,1-1S42.7,16.2,42.2,16.2z"/>
<path d="M48.3,18.2h14c0.6,0,1-0.4,1-1s-0.4-1-1-1h-14c-0.6,0-1,0.4-1,1S47.8,18.2,48.3,18.2z"/>
</svg>
